solid Exported from Blender-2.80 (sub 75)
facet normal 0.000000 0.000000 1.000000
outer loop
vertex 222.000000 4.749999 0.000000
vertex 224.000000 4.750003 0.000000
vertex 224.000000 216.669998 0.000000
endloop
endfacet
facet normal 0.000000 0.000000 1.000000
outer loop
vertex 222.000000 216.669998 0.000000
vertex 222.000000 225.000000 0.000000
vertex 17.000000 225.000000 0.000000
endloop
endfacet
facet normal 0.000000 0.000000 1.000000
outer loop
vertex 222.000000 4.749999 0.000000
vertex 224.000000 216.669998 0.000000
vertex 222.000000 216.669998 0.000000
endloop
endfacet
facet normal 0.000000 0.000000 1.000000
outer loop
vertex 17.000000 0.000000 0.000000
vertex 222.000000 0.000000 0.000000
vertex 222.000000 4.749999 0.000000
endloop
endfacet
facet normal 0.000000 0.000000 1.000000
outer loop
vertex 0.000000 216.669998 0.000000
vertex 0.000000 4.749999 0.000000
vertex 17.000000 4.749999 0.000000
endloop
endfacet
facet normal 0.000000 0.000000 1.000000
outer loop
vertex 17.000000 4.749999 0.000000
vertex 17.000000 0.000000 0.000000
vertex 222.000000 4.749999 0.000000
endloop
endfacet
facet normal 0.000000 0.000000 1.000000
outer loop
vertex 222.000000 4.749999 0.000000
vertex 222.000000 216.669998 0.000000
vertex 17.000000 225.000000 0.000000
endloop
endfacet
facet normal 0.000000 0.000000 1.000000
outer loop
vertex 17.000000 216.669998 0.000000
vertex 0.000000 216.669998 0.000000
vertex 17.000000 4.749999 0.000000
endloop
endfacet
facet normal 0.000000 0.000000 1.000000
outer loop
vertex 222.000000 4.749999 0.000000
vertex 17.000000 225.000000 0.000000
vertex 17.000000 216.669998 0.000000
endloop
endfacet
facet normal 0.000000 0.000000 1.000000
outer loop
vertex 222.000000 4.749999 0.000000
vertex 17.000000 216.669998 0.000000
vertex 17.000000 4.749999 0.000000
endloop
endfacet
endsolid Exported from Blender-2.80 (sub 75)
